<svg xmlns="http://www.w3.org/2000/svg"
 width="200" height="200" viewBox="0 0 512 512"
 preserveAspectRatio="xMidYMid meet">
<g transform="translate(0,512) scale(0.1,-0.1)"
fill="#FF3E00" stroke="none">
<path d="M863 4879 c-142 -24 -288 -103 -404 -218 -95 -96 -145 -176 -193
-310 l-31 -86 -3 -1150 c-3 -1254 -4 -1222 54 -1365 72 -178 223 -336 397
-416 106 -48 199 -65 393 -71 l181 -6 6 -181 c6 -194 23 -287 71 -393 102
-221 315 -390 553 -438 69 -14 216 -15 1228 -13 l1150 3 80 27 c129 45 220
101 316 197 95 96 145 176 193 310 l31 86 3 1150 c2 999 1 1160 -13 1226 -59
293 -279 524 -570 600 -60 15 -125 22 -261 26 l-181 6 -6 181 c-4 136 -11 201
-26 261 -62 239 -234 437 -462 529 -139 57 -111 56 -1331 55 -618 -1 -1146 -5
-1175 -10z m2311 -523 c47 -20 113 -82 139 -130 19 -36 22 -60 25 -203 l4
-162 -709 -3 -708 -4 -88 -27 c-288 -89 -467 -273 -554 -573 -15 -53 -17 -133
-21 -767 l-3 -709 -162 4 c-185 4 -213 13 -281 88 -71 78 -66 -5 -66 1202 0
702 4 1106 10 1129 13 48 79 122 132 148 43 21 44 21 1146 21 924 0 1108 -2
1136 -14z m1052 -1043 c48 -26 111 -92 130 -139 12 -28 14 -211 14 -1125 0
-789 -3 -1102 -11 -1130 -15 -48 -60 -103 -113 -137 l-41 -27 -1105 -3 c-748
-2 -1117 0 -1141 7 -47 14 -124 82 -152 135 l-22 41 0 1105 0 1105 24 45 c39
74 88 115 171 141 14 4 516 7 1115 6 l1090 -2 41 -22z"/>
<path d="M3200 3238 c-76 -20 -107 -32 -167 -60 -34 -16 -67 -36 -74 -44 -6
-8 -15 -14 -20 -14 -7 0 -118 -67 -144 -87 -5 -5 -41 -28 -80 -52 -38 -25 -97
-62 -130 -83 -33 -21 -67 -43 -75 -48 -59 -37 -126 -85 -128 -92 -2 -4 -9 -8
-16 -8 -16 0 -137 -129 -156 -166 -8 -16 -17 -31 -20 -34 -11 -10 -58 -136
-69 -182 -26 -113 -8 -298 39 -396 28 -57 25 -75 -16 -132 -22 -31 -54 -158
-59 -240 -6 -82 3 -174 23 -253 10 -37 70 -167 82 -177 3 -3 17 -21 30 -40 80
-117 262 -242 405 -278 166 -43 247 -41 425 6 38 10 134 59 180 92 15 11 33
20 38 20 6 0 12 3 14 8 3 8 84 62 93 62 3 0 11 5 18 10 12 10 60 42 197 128
36 23 72 46 80 52 8 5 44 28 79 51 204 130 309 310 318 545 5 114 -5 170 -52
294 l-18 46 35 74 c54 115 63 160 62 300 0 119 -12 189 -42 246 -5 11 -16 33
-23 49 -33 74 -171 245 -197 245 -6 0 -12 3 -14 8 -6 14 -74 60 -133 89 -95
48 -215 73 -342 72 -59 -1 -124 -5 -143 -11z m312 -284 c108 -35 229 -146 272
-249 29 -68 39 -161 25 -230 -7 -35 -16 -70 -20 -76 -5 -8 -26 0 -71 28 -69
43 -128 72 -167 83 -20 5 -27 15 -32 41 -19 119 -114 162 -224 101 -75 -42
-99 -56 -105 -62 -3 -3 -36 -25 -75 -49 -38 -24 -99 -63 -135 -86 -120 -78
-150 -95 -160 -95 -5 0 -10 -5 -10 -10 0 -6 -8 -14 -17 -17 -30 -12 -81 -63
-94 -95 -28 -68 45 -168 123 -168 26 0 128 49 128 62 0 4 4 8 9 8 10 0 112 60
121 71 9 11 94 54 132 67 20 7 77 13 126 13 101 1 202 -27 246 -68 14 -13 28
-23 31 -23 10 0 70 -64 102 -110 47 -66 65 -131 66 -231 0 -93 -25 -177 -68
-228 -40 -48 -97 -100 -116 -106 -10 -4 -19 -11 -19 -16 0 -5 -5 -9 -10 -9 -9
0 -87 -47 -100 -60 -8 -8 -111 -70 -116 -70 -3 0 -11 -6 -18 -12 -26 -25 -143
-98 -156 -98 -6 0 -10 -4 -10 -10 0 -5 -4 -10 -10 -10 -5 0 -31 -15 -57 -34
-165 -116 -334 -133 -499 -52 -167 83 -268 277 -235 447 20 97 21 100 34 89
49 -42 63 -51 84 -56 13 -4 23 -10 23 -14 0 -4 8 -10 18 -14 9 -3 42 -14 72
-24 48 -17 55 -23 58 -48 7 -78 69 -144 135 -144 27 0 73 17 94 35 7 5 19 16
27 22 8 7 18 13 21 13 6 0 46 25 155 95 36 23 97 62 135 86 39 24 72 46 75 49
3 4 32 22 65 40 33 19 68 43 78 55 55 62 52 130 -9 183 -41 35 -90 42 -141 20
-25 -11 -161 -96 -173 -108 -5 -5 -31 -20 -84 -49 -105 -56 -266 -59 -386 -7
-27 11 -112 66 -120 76 -3 4 -23 28 -45 54 -65 78 -87 144 -88 261 0 90 3 106
30 166 32 70 101 147 156 175 17 9 34 20 37 23 3 4 37 26 75 51 39 24 108 68
155 99 47 30 108 69 135 87 28 17 79 50 115 72 84 53 133 74 195 83 65 9 158
2 217 -17z"/>
</g>
</svg>
